# xmcd
#
# Track frame offsets:
#	150
#	21918
#	47910
#	65401
#	85465
#	114819
#	129810
#	149940
#	176535
#	204425
#	212600
#	231437
#
# Disc length: 3223 seconds
#
# Revision: 0
# Processed by: cddbd v1.5.2PL0 Copyright (c) Steve Scherf et al.
# Submitted via: EasyCDDAExtractor 10.0.6.1
#
DISCID=ad0c950c
DTITLE=Kiko Loureiro - Fullblast
DYEAR=2009
DGENRE=Instrumental Rock
TTITLE0=Headstrong
TTITLE1=Desperado
TTITLE2=Cutting Edge
TTITLE3=Excuse Me
TTITLE4=Se Entrega Corisco
TTITLE5=A Clairvoyance
TTITLE6=Corrosive Voices
TTITLE7=Whispering
TTITLE8=Outrageous
TTITLE9=Mundo Verde
TTITLE10=Pura Vida
TTITLE11=As It Is Infinite
EXTD=
EXTT0=
EXTT1=
EXTT2=
EXTT3=
EXTT4=
EXTT5=
EXTT6=
EXTT7=
EXTT8=
EXTT9=
EXTT10=
EXTT11=
PLAYORDER=
